<svg width="14" height="18" viewBox="0 0 14 18" fill="none" xmlns="http://www.w3.org/2000/svg">
<path fill-rule="evenodd" clip-rule="evenodd" d="M2.41993 14.9524H8.88338V17.3333H2.41993V14.9524ZM13.0523 9.07936C12.8988 8.92063 12.6887 8.82539 12.4544 8.82539L12.2767 8.8492L9.69131 10.1905V9.2619L10.1034 2.17459C10.1276 1.73809 9.78827 1.35713 9.3439 1.33332C8.89954 1.30951 8.51173 1.64285 8.4875 2.07936L8.26935 5.80158H8.07545L7.2352 5.88888V1.46031C7.2352 1.02199 6.87348 0.666656 6.42727 0.666656C5.99098 0.666656 5.61934 1.0238 5.61934 1.46031V6.54761L4.95683 6.84126L4.39936 2.50793C4.3428 2.07142 3.93884 1.76189 3.49447 1.81745C3.05011 1.85713 2.73502 2.25396 2.79157 2.70634L3.41368 7.51586L3.10667 7.65078C3.00164 7.69047 2.90468 7.75396 2.81581 7.80951L1.92709 4.72221C1.79782 4.26983 1.34538 3.99999 0.909092 4.1111C0.480888 4.23809 0.238508 4.6984 0.367778 5.15078L2.44416 12.3889C2.44416 12.4127 2.46032 12.4444 2.4684 12.4682L2.49264 12.5714H2.50072C2.67846 13.0238 3.13898 13.3651 3.63182 13.3651H8.88338C9.19847 13.3651 9.48125 13.2381 9.69131 13.0238L13.6663 9.69047L13.0523 9.07936Z" fill="#9E9E9E"/>
</svg>
