<svg width="18" height="18" viewBox="0 0 18 18" fill="none" xmlns="http://www.w3.org/2000/svg">
<path fill-rule="evenodd" clip-rule="evenodd" d="M4.51325 8.96569C4.51325 9.9861 3.68615 10.8132 2.66574 10.8132C1.64533 10.8132 0.818237 9.9861 0.818237 8.96569C0.818237 7.94528 1.64533 7.11818 2.66574 7.11818C3.68615 7.11818 4.51325 7.94528 4.51325 8.96569ZM10.8476 8.96569C10.8476 9.9861 10.0205 10.8132 9.00006 10.8132C7.97965 10.8132 7.15255 9.9861 7.15255 8.96569C7.15255 7.94528 7.97965 7.11818 9.00006 7.11818C10.0205 7.11818 10.8476 7.94528 10.8476 8.96569ZM15.3344 10.8132C16.3548 10.8132 17.1819 9.9861 17.1819 8.96569C17.1819 7.94528 16.3548 7.11818 15.3344 7.11818C14.314 7.11818 13.4869 7.94528 13.4869 8.96569C13.4869 9.9861 14.314 10.8132 15.3344 10.8132Z" fill="#9E9E9E"/>
</svg>
